<?xml version="1.0" encoding="UTF-8" standalone="no"?>
<svg
   width="700pt"
   height="700pt"
   version="1.1"
   viewBox="0 0 700 700"
   id="svg155"
   sodipodi:docname="noun-vaccine-1699537.svg"
   inkscape:version="1.1.1 (3bf5ae0d25, 2021-09-20)"
   xmlns:inkscape="http://www.inkscape.org/namespaces/inkscape"
   xmlns:sodipodi="http://sodipodi.sourceforge.net/DTD/sodipodi-0.dtd"
   xmlns="http://www.w3.org/2000/svg"
   xmlns:svg="http://www.w3.org/2000/svg">
  <sodipodi:namedview
     id="namedview157"
     pagecolor="#505050"
     bordercolor="#eeeeee"
     borderopacity="1"
     inkscape:pageshadow="0"
     inkscape:pageopacity="0"
     inkscape:pagecheckerboard="0"
     inkscape:document-units="pt"
     showgrid="false"
     inkscape:zoom="0.44571429"
     inkscape:cx="244.55128"
     inkscape:cy="723.55769"
     inkscape:window-width="1920"
     inkscape:window-height="1017"
     inkscape:window-x="-8"
     inkscape:window-y="-8"
     inkscape:window-maximized="1"
     inkscape:current-layer="g153" />
  <defs
     id="defs65">
    <symbol
       id="u"
       overflow="visible">
      <path
         d="m18.766-1.125c-0.96875 0.5-1.9805 0.875-3.0312 1.125-1.043 0.25781-2.1367 0.39062-3.2812 0.39062-3.3984 0-6.0898-0.94531-8.0781-2.8438-1.9922-1.9062-2.9844-4.4844-2.9844-7.7344 0-3.2578 0.99219-5.8359 2.9844-7.7344 1.9883-1.9062 4.6797-2.8594 8.0781-2.8594 1.1445 0 2.2383 0.13281 3.2812 0.39062 1.0508 0.25 2.0625 0.625 3.0312 1.125v4.2188c-0.98047-0.65625-1.9453-1.1406-2.8906-1.4531-0.94922-0.3125-1.9492-0.46875-3-0.46875-1.875 0-3.3516 0.60547-4.4219 1.8125-1.0742 1.1992-1.6094 2.8555-1.6094 4.9688 0 2.1055 0.53516 3.7617 1.6094 4.9688 1.0703 1.1992 2.5469 1.7969 4.4219 1.7969 1.0508 0 2.0508-0.14844 3-0.45312 0.94531-0.3125 1.9102-0.80078 2.8906-1.4688z"
         id="path2" />
    </symbol>
    <symbol
       id="d"
       overflow="visible">
      <path
         d="m13.734-11.141c-0.4375-0.19531-0.87109-0.34375-1.2969-0.4375-0.41797-0.10156-0.83984-0.15625-1.2656-0.15625-1.2617 0-2.2305 0.40625-2.9062 1.2188-0.67969 0.80469-1.0156 1.9531-1.0156 3.4531v7.0625h-4.8906v-15.312h4.8906v2.5156c0.625-1 1.3438-1.7266 2.1562-2.1875 0.82031-0.46875 1.8008-0.70312 2.9375-0.70312 0.16406 0 0.34375 0.011719 0.53125 0.03125 0.19531 0.011719 0.47656 0.039062 0.84375 0.078125z"
         id="path5" />
    </symbol>
    <symbol
       id="a"
       overflow="visible">
      <path
         d="m17.641-7.7031v1.4062h-11.453c0.125 1.1484 0.53906 2.0078 1.25 2.5781 0.70703 0.57422 1.7031 0.85938 2.9844 0.85938 1.0312 0 2.082-0.14844 3.1562-0.45312 1.082-0.3125 2.1914-0.77344 3.3281-1.3906v3.7656c-1.1562 0.4375-2.3125 0.76562-3.4688 0.98438-1.1562 0.22656-2.3125 0.34375-3.4688 0.34375-2.7734 0-4.9297-0.70312-6.4688-2.1094-1.5312-1.4062-2.2969-3.3789-2.2969-5.9219 0-2.5 0.75391-4.4609 2.2656-5.8906 1.5078-1.4375 3.582-2.1562 6.2188-2.1562 2.4062 0 4.332 0.73047 5.7812 2.1875 1.4453 1.4492 2.1719 3.3828 2.1719 5.7969zm-5.0312-1.625c0-0.92578-0.27344-1.6719-0.8125-2.2344-0.54297-0.57031-1.25-0.85938-2.125-0.85938-0.94922 0-1.7188 0.26562-2.3125 0.79688s-0.96484 1.2969-1.1094 2.2969z"
         id="path8" />
    </symbol>
    <symbol
       id="l"
       overflow="visible">
      <path
         d="m9.2188-6.8906c-1.0234 0-1.793 0.17188-2.3125 0.51562-0.51172 0.34375-0.76562 0.85547-0.76562 1.5312 0 0.625 0.20703 1.1172 0.625 1.4688 0.41406 0.34375 0.98828 0.51562 1.7188 0.51562 0.92578 0 1.7031-0.32812 2.3281-0.98438 0.63281-0.66406 0.95312-1.4922 0.95312-2.4844v-0.5625zm7.4688-1.8438v8.7344h-4.9219v-2.2656c-0.65625 0.92969-1.3984 1.6055-2.2188 2.0312-0.82422 0.41406-1.8242 0.625-3 0.625-1.5859 0-2.8711-0.45703-3.8594-1.375-0.99219-0.92578-1.4844-2.1289-1.4844-3.6094 0-1.7891 0.61328-3.1016 1.8438-3.9375 1.2383-0.84375 3.1797-1.2656 5.8281-1.2656h2.8906v-0.39062c0-0.76953-0.30859-1.332-0.92188-1.6875-0.61719-0.36328-1.5703-0.54688-2.8594-0.54688-1.0547 0-2.0312 0.10547-2.9375 0.3125-0.89844 0.21094-1.7305 0.52344-2.5 0.9375v-3.7344c1.0391-0.25 2.0859-0.44141 3.1406-0.57812 1.0625-0.13281 2.125-0.20312 3.1875-0.20312 2.7578 0 4.75 0.54688 5.9688 1.6406 1.2266 1.0859 1.8438 2.8555 1.8438 5.3125z"
         id="path11" />
    </symbol>
    <symbol
       id="c"
       overflow="visible">
      <path
         d="m7.7031-19.656v4.3438h5.0469v3.5h-5.0469v6.5c0 0.71094 0.14062 1.1875 0.42188 1.4375s0.83594 0.375 1.6719 0.375h2.5156v3.5h-4.1875c-1.9375 0-3.3125-0.39844-4.125-1.2031-0.80469-0.8125-1.2031-2.1797-1.2031-4.1094v-6.5h-2.4219v-3.5h2.4219v-4.3438z"
         id="path14" />
    </symbol>
    <symbol
       id="g"
       overflow="visible">
      <path
         d="m12.766-13.078v-8.2031h4.9219v21.281h-4.9219v-2.2188c-0.66797 0.90625-1.4062 1.5703-2.2188 1.9844s-1.7578 0.625-2.8281 0.625c-1.8867 0-3.4336-0.75-4.6406-2.25-1.2109-1.5-1.8125-3.4258-1.8125-5.7812 0-2.3633 0.60156-4.2969 1.8125-5.7969 1.207-1.5 2.7539-2.25 4.6406-2.25 1.0625 0 2 0.21484 2.8125 0.64062 0.82031 0.42969 1.5664 1.0859 2.2344 1.9688zm-3.2188 9.9219c1.0391 0 1.8359-0.37891 2.3906-1.1406 0.55078-0.76953 0.82812-1.8828 0.82812-3.3438 0-1.457-0.27734-2.5664-0.82812-3.3281-0.55469-0.76953-1.3516-1.1562-2.3906-1.1562-1.043 0-1.8398 0.38672-2.3906 1.1562-0.55469 0.76172-0.82812 1.8711-0.82812 3.3281 0 1.4609 0.27344 2.5742 0.82812 3.3438 0.55078 0.76172 1.3477 1.1406 2.3906 1.1406z"
         id="path17" />
    </symbol>
    <symbol
       id="k"
       overflow="visible">
      <path
         d="m10.5-3.1562c1.0508 0 1.8516-0.37891 2.4062-1.1406 0.55078-0.76953 0.82812-1.8828 0.82812-3.3438 0-1.457-0.27734-2.5664-0.82812-3.3281-0.55469-0.76953-1.3555-1.1562-2.4062-1.1562-1.0547 0-1.8594 0.38672-2.4219 1.1562-0.55469 0.77344-0.82812 1.8828-0.82812 3.3281 0 1.4492 0.27344 2.5586 0.82812 3.3281 0.5625 0.77344 1.3672 1.1562 2.4219 1.1562zm-3.25-9.9219c0.67578-0.88281 1.4219-1.5391 2.2344-1.9688 0.82031-0.42578 1.7656-0.64062 2.8281-0.64062 1.8945 0 3.4453 0.75 4.6562 2.25 1.207 1.5 1.8125 3.4336 1.8125 5.7969 0 2.3555-0.60547 4.2812-1.8125 5.7812-1.2109 1.5-2.7617 2.25-4.6562 2.25-1.0625 0-2.0078-0.21094-2.8281-0.625-0.8125-0.42578-1.5586-1.0859-2.2344-1.9844v2.2188h-4.8906v-21.281h4.8906z"
         id="path20" />
    </symbol>
    <symbol
       id="f"
       overflow="visible">
      <path
         d="m0.34375-15.312h4.8906l4.125 10.391 3.5-10.391h4.8906l-6.4375 16.766c-0.64844 1.6953-1.4023 2.8828-2.2656 3.5625-0.86719 0.6875-2 1.0312-3.4062 1.0312h-2.8438v-3.2188h1.5312c0.83203 0 1.4375-0.13672 1.8125-0.40625 0.38281-0.26172 0.67969-0.73047 0.89062-1.4062l0.14062-0.42188z"
         id="path23" />
    </symbol>
    <symbol
       id="j"
       overflow="visible">
      <path
         d="m14.953-3.7188h-8.2188l-1.3125 3.7188h-5.2812l7.5625-20.406h6.2656l7.5625 20.406h-5.2812zm-6.9062-3.7812h5.5781l-2.7812-8.125z"
         id="path26" />
    </symbol>
    <symbol
       id="e"
       overflow="visible">
      <path
         d="m17.75-9.3281v9.3281h-4.9219v-7.1406c0-1.3203-0.03125-2.2344-0.09375-2.7344s-0.16797-0.86719-0.3125-1.1094c-0.1875-0.3125-0.44922-0.55469-0.78125-0.73438-0.32422-0.17578-0.69531-0.26562-1.1094-0.26562-1.0234 0-1.8242 0.39844-2.4062 1.1875-0.58594 0.78125-0.875 1.8711-0.875 3.2656v7.5312h-4.8906v-15.312h4.8906v2.2344c0.73828-0.88281 1.5195-1.5391 2.3438-1.9688 0.83203-0.42578 1.75-0.64062 2.75-0.64062 1.7695 0 3.1133 0.54688 4.0312 1.6406 0.91406 1.0859 1.375 2.6562 1.375 4.7188z"
         id="path29" />
    </symbol>
    <symbol
       id="i"
       overflow="visible">
      <path
         d="m17.75-9.3281v9.3281h-4.9219v-7.1094c0-1.3438-0.03125-2.2656-0.09375-2.7656s-0.16797-0.86719-0.3125-1.1094c-0.1875-0.3125-0.44922-0.55469-0.78125-0.73438-0.32422-0.17578-0.69531-0.26562-1.1094-0.26562-1.0234 0-1.8242 0.39844-2.4062 1.1875-0.58594 0.78125-0.875 1.8711-0.875 3.2656v7.5312h-4.8906v-21.281h4.8906v8.2031c0.73828-0.88281 1.5195-1.5391 2.3438-1.9688 0.83203-0.42578 1.75-0.64062 2.75-0.64062 1.7695 0 3.1133 0.54688 4.0312 1.6406 0.91406 1.0859 1.375 2.6562 1.375 4.7188z"
         id="path32" />
    </symbol>
    <symbol
       id="b"
       overflow="visible">
      <path
         d="m9.6406-12.188c-1.0859 0-1.9141 0.39062-2.4844 1.1719-0.57422 0.78125-0.85938 1.9062-0.85938 3.375s0.28516 2.5938 0.85938 3.375c0.57031 0.77344 1.3984 1.1562 2.4844 1.1562 1.0625 0 1.875-0.38281 2.4375-1.1562 0.57031-0.78125 0.85938-1.9062 0.85938-3.375s-0.28906-2.5938-0.85938-3.375c-0.5625-0.78125-1.375-1.1719-2.4375-1.1719zm0-3.5c2.6328 0 4.6914 0.71484 6.1719 2.1406 1.4766 1.418 2.2188 3.3867 2.2188 5.9062 0 2.5117-0.74219 4.4805-2.2188 5.9062-1.4805 1.418-3.5391 2.125-6.1719 2.125-2.6484 0-4.7148-0.70703-6.2031-2.125-1.4922-1.4258-2.2344-3.3945-2.2344-5.9062 0-2.5195 0.74219-4.4883 2.2344-5.9062 1.4883-1.4258 3.5547-2.1406 6.2031-2.1406z"
         id="path35" />
    </symbol>
    <symbol
       id="t"
       overflow="visible">
      <path
         d="m2.5781-20.406h5.25v16.422h9.25v3.9844h-14.5z"
         id="path38" />
    </symbol>
    <symbol
       id="h"
       overflow="visible">
      <path
         d="m2.1875-5.9688v-9.3438h4.9219v1.5312c0 0.83594-0.007813 1.875-0.015625 3.125-0.011719 1.25-0.015625 2.0859-0.015625 2.5 0 1.2422 0.03125 2.1328 0.09375 2.6719 0.070313 0.54297 0.17969 0.93359 0.32812 1.1719 0.20703 0.32422 0.47266 0.57422 0.79688 0.75 0.32031 0.16797 0.69141 0.25 1.1094 0.25 1.0195 0 1.8203-0.39062 2.4062-1.1719 0.58203-0.78125 0.875-1.8672 0.875-3.2656v-7.5625h4.8906v15.312h-4.8906v-2.2188c-0.74219 0.89844-1.5234 1.5586-2.3438 1.9844-0.82422 0.41406-1.7344 0.625-2.7344 0.625-1.7617 0-3.1055-0.53906-4.0312-1.625-0.92969-1.082-1.3906-2.6602-1.3906-4.7344z"
         id="path41" />
    </symbol>
    <symbol
       id="s"
       overflow="visible">
      <path
         d="m6.2188-7.8281-5.5156-7.4844h5.1719l3.1406 4.5312 3.1719-4.5312h5.1719l-5.5156 7.4531 5.7969 7.8594h-5.1875l-3.4375-4.8438-3.4062 4.8438h-5.1875z"
         id="path44" />
    </symbol>
    <symbol
       id="r"
       overflow="visible">
      <path
         d="m12.422-21.281v3.2188h-2.7031c-0.6875 0-1.1719 0.125-1.4531 0.375-0.27344 0.25-0.40625 0.6875-0.40625 1.3125v1.0625h4.1875v3.5h-4.1875v11.812h-4.8906v-11.812h-2.4375v-3.5h2.4375v-1.0625c0-1.6641 0.46094-2.8984 1.3906-3.7031 0.92578-0.80078 2.3672-1.2031 4.3281-1.2031z"
         id="path47" />
    </symbol>
    <symbol
       id="q"
       overflow="visible">
      <path
         d="m16.547-12.766c0.61328-0.94531 1.3477-1.6719 2.2031-2.1719 0.85156-0.5 1.7891-0.75 2.8125-0.75 1.7578 0 3.0977 0.54688 4.0156 1.6406 0.92578 1.0859 1.3906 2.6562 1.3906 4.7188v9.3281h-4.9219v-7.9844-0.35938c0.007813-0.13281 0.015625-0.32031 0.015625-0.5625 0-1.082-0.16406-1.8633-0.48438-2.3438-0.3125-0.48828-0.82422-0.73438-1.5312-0.73438-0.92969 0-1.6484 0.38672-2.1562 1.1562-0.51172 0.76172-0.77344 1.8672-0.78125 3.3125v7.5156h-4.9219v-7.9844c0-1.6953-0.14844-2.7852-0.4375-3.2656-0.29297-0.48828-0.8125-0.73438-1.5625-0.73438-0.9375 0-1.6641 0.38672-2.1719 1.1562-0.51172 0.76172-0.76562 1.8594-0.76562 3.2969v7.5312h-4.9219v-15.312h4.9219v2.2344c0.60156-0.86328 1.2891-1.5156 2.0625-1.9531 0.78125-0.4375 1.6406-0.65625 2.5781-0.65625 1.0625 0 2 0.25781 2.8125 0.76562 0.8125 0.51172 1.4258 1.2305 1.8438 2.1562z"
         id="path50" />
    </symbol>
    <symbol
       id="p"
       overflow="visible">
      <path
         d="m2.5781-20.406h5.875l7.4219 14v-14h4.9844v20.406h-5.875l-7.4219-14v14h-4.9844z"
         id="path53" />
    </symbol>
    <symbol
       id="o"
       overflow="visible">
      <path
         d="m2.5781-20.406h8.7344c2.5938 0 4.582 0.57812 5.9688 1.7344 1.3945 1.1484 2.0938 2.7891 2.0938 4.9219 0 2.1367-0.69922 3.7812-2.0938 4.9375-1.3867 1.1562-3.375 1.7344-5.9688 1.7344h-3.4844v7.0781h-5.25zm5.25 3.8125v5.7031h2.9219c1.0195 0 1.8047-0.25 2.3594-0.75 0.5625-0.5 0.84375-1.2031 0.84375-2.1094 0-0.91406-0.28125-1.6172-0.84375-2.1094-0.55469-0.48828-1.3398-0.73438-2.3594-0.73438z"
         id="path56" />
    </symbol>
    <symbol
       id="n"
       overflow="visible">
      <path
         d="m2.3594-15.312h4.8906v15.031c0 2.0508-0.49609 3.6172-1.4844 4.7031-0.98047 1.082-2.4062 1.625-4.2812 1.625h-2.4219v-3.2188h0.85938c0.92578 0 1.5625-0.21094 1.9062-0.625 0.35156-0.41797 0.53125-1.2461 0.53125-2.4844zm0-5.9688h4.8906v4h-4.8906z"
         id="path59" />
    </symbol>
    <symbol
       id="m"
       overflow="visible">
      <path
         d="m14.719-14.828v3.9844c-0.65625-0.45703-1.3242-0.79688-2-1.0156-0.66797-0.21875-1.3594-0.32812-2.0781-0.32812-1.3672 0-2.4336 0.40234-3.2031 1.2031-0.76172 0.79297-1.1406 1.9062-1.1406 3.3438 0 1.4297 0.37891 2.543 1.1406 3.3438 0.76953 0.79297 1.8359 1.1875 3.2031 1.1875 0.75781 0 1.4844-0.10938 2.1719-0.32812 0.6875-0.22656 1.3203-0.56641 1.9062-1.0156v4c-0.76172 0.28125-1.5391 0.48828-2.3281 0.625-0.78125 0.14453-1.5742 0.21875-2.375 0.21875-2.7617 0-4.9219-0.70703-6.4844-2.125-1.5547-1.4141-2.3281-3.3828-2.3281-5.9062 0-2.5312 0.77344-4.5039 2.3281-5.9219 1.5625-1.4141 3.7227-2.125 6.4844-2.125 0.80078 0 1.5938 0.074219 2.375 0.21875 0.78125 0.13672 1.5547 0.35156 2.3281 0.64062z"
         id="path62" />
    </symbol>
  </defs>
  <g
     id="g153">
    <path
       d="m 575.15588,300.26423 -179.1342,203.25316 c -19.10255,21.66122 -27.62932,52.58031 -22.81693,82.73056 1.55028,9.78524 -1.21151,19.81831 -7.40687,26.84804 l -35.69014,40.48885 c -4.49578,5.1076 -11.79343,5.1076 -16.29509,0 -4.49577,-5.10759 -4.49577,-13.38132 0.006,-18.48908 l 18.43082,-20.91239 c 5.63258,-6.44966 5.61538,-16.85964 -0.0517,-23.28396 -5.66139,-6.42365 -14.83108,-6.44967 -20.52099,-0.052 l -47.91512,54.37317 c -4.50151,5.1076 -11.79916,5.1076 -16.29508,0 -4.50151,-5.10108 -4.50151,-13.38132 0,-18.48908 l 47.91512,-54.36652 c 5.67859,-6.44315 5.67859,-16.893 0,-23.33567 -5.67858,-6.44316 -14.88253,-6.44316 -20.56067,0 l -62.66537,71.09608 c -4.5015,5.1076 -11.79916,5.1076 -16.29508,0 -4.5015,-5.10759 -4.5015,-13.38131 0,-18.48908 l 55.28657,-62.73045 c 2.74456,-3.09459 4.29484,-7.29657 4.30058,-11.68102 0.006,-4.38444 -1.52162,-8.59294 -4.25457,-11.70053 -2.73883,-3.10108 -6.44792,-4.84042 -10.31209,-4.83391 -3.86416,0.007 -7.56752,1.76552 -10.29488,4.87961 l -55.28657,62.73714 c -4.50151,5.10108 -11.79917,5.10108 -16.29509,-0.007 -4.5015,-5.1011 -4.5015,-13.38133 0,-18.48908 l 70.83055,-80.3673 1.94068,1.15961 0.0287,0.0195 c 7.0738,4.14345 14.18199,7.9415 21.43966,11.6615 2.06695,1.06191 4.50724,0.0132 5.44311,-2.33223 0.9359,-2.35191 0.0172,-5.12061 -2.05548,-6.18249 -7.17712,-3.6743 -14.14758,-7.40731 -21.04867,-11.44652 l -4.6335,-2.76219 -0.006,0.0132 h 0.006 c -5.26511,-3.90897 -11.48916,-5.80473 -17.77084,-5.42681 -6.27565,0.37785 -12.28731,3.00984 -17.15643,7.52455 -0.5225,0.23452 -0.99332,0.58632 -1.38949,1.02934 L 177.86737,491.724 v 0.007 c -4.96084,5.42681 -11.60969,8.41716 -18.50578,8.33244 -6.89579,-0.0847 -13.48158,-3.25086 -18.33968,-8.80142 -0.70049,-0.79479 -1.09093,-1.87626 -1.09093,-3.00335 -0.006,-1.07493 0.36747,-2.11074 1.03351,-2.8731 l 30.49412,-34.5999 31.95812,-36.25435 0.006,-0.007 c 7.35513,-9.10762 17.3578,-14.88634 28.17464,-16.28044 l 0.2067,-0.0195 c 1.01054,-0.1367 2.03255,-0.20848 3.04882,-0.20848 3.49097,0.0456 6.959,0.70361 10.27196,1.93497 v -0.007 h 0.006 c 1.66508,0.67754 3.37043,1.23129 5.10445,1.66126 0.0575,0.0196 0.0976,0.0717 0.15503,0.0847 5.46619,1.5896 11.09303,2.38444 16.73751,2.37143 5.46031,-0.0132 10.90357,-0.71011 16.23188,-2.08473 l 0.0575,-0.0132 -0.006,-0.007 c 12.65478,-3.44631 24.21921,-10.79507 33.428,-21.22591 l 49.68339,-56.37287 c 0.26986,0.0196 0.52825,0.1759 0.7981,0.1759 h -0.006 c 1.82015,-0.0456 3.60576,-0.54725 5.23072,-1.46582 l 20.19908,22.91205 c -4.70817,5.6678 -8.83648,11.922 -12.29878,18.64585 -3.3819,6.09127 -5.37417,13.04259 -5.79338,20.22192 -0.25837,3.92196 0.99906,7.77872 3.45084,10.56042 2.45176,2.77537 5.84512,4.2085 9.30154,3.92196 6.33312,-0.47557 12.45958,-2.73616 17.82817,-6.57991 14.21079,-9.60278 26.09035,-23.07549 34.55392,-39.19965 3.3819,-6.09127 5.37417,-13.0426 5.79338,-20.22859 0.14928,-3.90229 -1.09666,-7.70701 -3.45083,-10.56043 -2.50909,-2.67113 -5.86232,-4.08474 -9.30155,-3.92196 -6.33312,0.48209 -12.45958,2.74267 -17.82816,6.57991 -5.92538,3.92847 -11.43743,8.61263 -16.43325,13.96121 l -20.19909,-22.91873 c 0.81533,-1.85024 1.25744,-3.87626 1.2919,-5.94149 0,-0.30619 -0.13773,-0.59284 -0.15503,-0.89903 L 481.4592,193.93734 v 0.007 c 1.56748,-1.83072 1.55601,-4.75585 -0.0403,-6.56039 -1.59041,-1.81105 -4.16843,-1.83074 -5.78191,-0.0456 l -99.71662,113.14266 -8.60688,-9.76574 2.12442,-2.41045 h -0.006 c 5.25938,-5.9675 5.25938,-15.63549 0,-21.60283 l -34.12325,-38.71768 -0.006,-0.0132 -0.0118,-0.007 -23.25937,-26.39105 -0.006,-0.0132 -0.0118,-0.007 -46.54814,-52.81547 -0.006,-0.0132 -0.0118,-0.007 -23.25938,-26.39105 -0.006,-0.0132 -0.0118,-0.007 -37.82588,-42.918814 8.73314,-9.908986 -0.0118,-0.0073 c 1.60776,-1.824223 1.60776,-4.781885 0,-6.605932 -1.60775,-1.824061 -4.21444,-1.824238 -5.82204,0 L 181.05746,92.58368 157.78045,66.165935 178.15151,43.058741 v -0.0073 c 1.59614,-1.824223 1.59041,-4.768862 -0.0118,-6.586412 -1.60188,-1.817564 -4.20298,-1.824223 -5.81058,-0.01323 L 125.76339,89.28724 v -0.0073 c -1.59041,1.83072 -1.57895,4.768862 0.0172,6.579915 1.60187,1.81755 4.1915,1.830735 5.80484,0.02602 l 20.37106,-23.113853 23.28289,26.417745 -26.18737,29.719943 c -1.60775,1.81757 -1.60775,4.77539 0,6.59944 1.60775,1.82406 4.21444,1.82422 5.81631,0 l 8.73314,-9.90248 165.09685,187.32581 c 5.25365,5.96099 13.78012,5.96099 19.03347,0 l 2.12442,-2.41046 8.60688,9.77223 -47.4433,53.83115 c -8.12446,9.20534 -18.33968,15.6942 -29.50636,18.74258 -4.71963,1.21827 -9.54275,1.83723 -14.38306,1.85024 -4.95511,0.0132 -9.88729,-0.68405 -14.68733,-2.07821 h -0.0516 c -0.0517,-0.0132 -0.0861,-0.052 -0.13773,-0.0653 -1.52735,-0.36482 -3.02589,-0.85994 -4.49004,-1.47233 l -0.13773,-0.052 c -4.12257,-1.53098 -8.42887,-2.33222 -12.76958,-2.37143 -1.28614,0 -2.56655,0.0847 -3.84123,0.25407 v -0.007 l -0.1148,0.0195 -0.0919,0.007 v 0.007 c -12.7121,1.59611 -24.49995,8.32593 -33.19869,18.95773 l -31.95812,36.25435 -30.49999,34.60658 c -2.21629,2.51468 -3.45657,5.92196 -3.44511,9.47903 -0.006,3.60274 1.25744,7.05556 3.4967,9.60278 6.37898,7.28356 15.03245,11.427 24.08103,11.54425 9.04887,0.11069 17.77672,-3.82424 24.2927,-10.94485 l 0.0632,-0.0653 14.89429,-16.90635 0.70049,-0.79481 h -0.006 c 2.89963,-3.3811 6.60872,-5.71349 10.66809,-6.71667 4.05936,-0.99677 8.28527,-0.61889 12.15516,1.09449 l -68.86678,78.13914 c -7.71114,8.74938 -7.71687,22.93874 0,31.69462 7.71113,8.75588 20.2226,8.75588 27.93358,0.007 l 55.29246,-62.74381 c 1.17704,-1.35507 2.78468,-2.11726 4.46711,-2.12376 1.68227,-0.007 3.29576,0.7492 4.4843,2.09774 1.18853,1.34856 1.84882,3.17914 1.84308,5.08158 -0.006,1.90878 -0.67752,3.73301 -1.87174,5.07508 l -55.28657,62.73045 h -0.006 c -7.66513,8.7624 -7.64793,22.91207 0.0516,31.64293 7.69394,8.72987 20.1594,8.75588 27.88214,0.0586 l 62.66537,-71.10275 h 0.006 c 1.17705,-1.35508 2.79042,-2.12377 4.46711,-2.12377 1.68228,-0.007 3.29576,0.74921 4.48431,2.09775 1.18853,1.34856 1.84881,3.17263 1.84881,5.08158 -0.006,1.90877 -0.68326,3.73301 -1.87748,5.07507 l -47.921,54.36651 c -7.69967,8.75588 -7.69967,22.93874 0.0118,31.68796 7.7054,8.74937 20.20496,8.75588 27.92183,0.0132 l 47.921,-54.37318 c 2.46896,-2.75568 6.43646,-2.73618 8.88822,0.0456 2.45175,2.77537 2.46895,7.27706 0.0401,10.08494 l -18.43081,20.9057 c -7.71687,8.74938 -7.71687,22.94542 -0.006,31.69463 7.71686,8.75588 20.2226,8.76239 27.93946,0.007 l 35.69014,-40.49553 v 0.007 c 8.0958,-9.19885 11.71891,-22.31333 9.68621,-35.10859 -4.33496,-27.14657 3.34163,-54.97191 20.53863,-74.47668 L 580.98349,306.86507 c 1.57322,-1.83073 1.55602,-4.75585 -0.0401,-6.56041 -1.59041,-1.80454 -4.16843,-1.82422 -5.78192,-0.0457 z m -156.10119,33.28402 c 4.1455,-3.01637 8.87102,-4.8536 13.76866,-5.36161 1.25169,-0.14976 2.50335,0.27362 3.47949,1.1857 l 2.9111,-3.30306 -2.9111,3.30306 c 0.7981,1.10101 1.17705,2.52769 1.045,3.95449 -0.44786,5.55707 -2.07282,10.91232 -4.72537,15.61598 -7.72833,14.65834 -18.53371,26.91975 -31.45836,35.6873 -4.13976,3.01636 -8.86513,4.8536 -13.76292,5.36161 -1.26318,0.29316 -2.57229,-0.14977 -3.4795,-1.1857 -0.91292,-1.03585 -1.30337,-2.52119 -1.04499,-3.95449 0.44786,-5.55707 2.06694,-10.91234 4.72537,-15.61599 3.09483,-5.99369 6.76953,-11.57677 10.96089,-16.64534 l 1.25169,1.42022 c -1.38949,1.84373 -2.62976,3.82423 -3.71483,5.90896 -1.57321,2.85342 -2.48042,6.11745 -2.64123,9.47903 -0.10333,2.31273 0.6603,4.56041 2.10149,6.1955 1.44119,1.6351 3.42776,2.50819 5.46031,2.39094 2.96269,-0.1824 5.83939,-1.21827 8.35421,-2.99684 3.04309,-2.00652 5.83365,-4.46917 8.30246,-7.30958 2.50909,-2.80789 4.67378,-5.97401 6.44792,-9.42032 1.56748,-2.85993 2.48042,-6.11745 2.64123,-9.47905 0.10333,-2.3127 -0.6603,-4.56038 -2.10149,-6.19548 -1.44117,-1.63522 -3.42776,-2.50169 -5.46619,-2.39095 -2.96268,0.18894 -5.83365,1.21828 -8.34847,2.99685 -1.84308,1.23782 -3.58856,2.64495 -5.21925,4.22151 l -1.25169,-1.42023 v -0.007 c 4.46711,-4.74935 9.39341,-8.92533 14.67587,-12.43668 z m -2.09575,20.10515 0.006,-0.007 c -0.70624,1.37461 -1.49854,2.68413 -2.37709,3.92196 l -3.13496,-3.55705 c 1.09093,-0.99677 2.24495,-1.89578 3.45657,-2.69716 1.06222,-0.73617 2.22775,-1.27039 3.45083,-1.57658 -0.2756,1.38115 -0.74642,2.70366 -1.39524,3.90897 z m -8.1934,10.52142 c -1.08519,0.99024 -2.23922,1.89576 -3.45084,2.69062 -1.06796,0.73619 -2.23348,1.27039 -3.45084,1.58311 0.26986,-1.38766 0.74069,-2.71015 1.39524,-3.92198 0.70049,-1.36809 1.49281,-2.67762 2.37136,-3.90895 z M 305.24193,235.76191 185.92301,100.37764 l -0.0517,-0.0325 12.64904,-14.35214 11.63851,13.205529 -8.73314,9.902491 c -1.59041,1.82422 -1.58468,4.76886 0.0172,6.58642 1.60189,1.81755 4.1915,1.82423 5.80484,0.0195 l 8.72741,-9.90247 17.46658,19.81831 -8.72741,9.90247 v -0.007 c -1.59041,1.83074 -1.57894,4.76888 0.0172,6.57993 1.60187,1.81755 4.19151,1.82423 5.80484,0.026 l 8.72741,-9.90249 17.4607,19.81164 -8.72741,9.90898 -0.006,-0.007 c -1.60187,1.82423 -1.59614,4.77538 0.0118,6.59942 1.60188,1.81757 4.20297,1.82423 5.81058,0.007 l 8.72741,-9.90247 17.4607,19.81164 -8.72741,9.90247 c -1.59041,1.82422 -1.57895,4.76237 0.0172,6.57993 1.60187,1.81104 4.1915,1.82422 5.79911,0.0195 l 8.73314,-9.90249 17.4607,19.81831 -8.73314,9.90249 c -1.59041,1.82422 -1.58468,4.76236 0.0172,6.57991 1.60191,1.81757 4.19151,1.83074 5.80485,0.026 l 8.73314,-9.90247 8.77342,9.95468 z m -135.81979,-116.75175 10.64516,-12.08494 0.0344,0.0587 119.33068,135.39092 -10.61649,12.10446 z m 168.78625,189.0603 c -1.38949,0.007 -2.72163,-0.61889 -3.69763,-1.7395 l -39.87636,-45.24538 13.50452,-15.3945 0.0172,-0.0196 15.5425,-17.64852 2.87082,3.25735 -8.72741,9.90249 h -0.006 c -1.59041,1.83072 -1.57894,4.76886 0.0172,6.57992 1.60188,1.81755 4.19151,1.82422 5.80485,0.026 l 8.72741,-9.90248 17.46069,19.81165 -8.7274,9.90247 h -0.006 c -1.58468,1.83074 -1.57895,4.76888 0.0229,6.57992 1.59614,1.81756 4.1915,1.83073 5.79911,0.026 l 8.72741,-9.90247 7.94073,9.00987 h 0.006 c 2.03828,2.31924 2.03828,6.07175 -0.006,8.39097 l -21.70424,24.62655 h 0.006 c -0.98183,1.12055 -2.31388,1.746 -3.69763,1.7395 z m 17.46069,-4.14344 5.82205,-6.60595 8.60688,9.76573 -5.82205,6.60594 z"
       id="path67"
       style="stroke-width:1.56572" />
    <path
       d="m 326.65808,511.72291 c -4.00204,-1.17918 -7.98101,-2.41697 -11.94851,-3.72 -2.18762,-0.71664 -4.46711,0.71662 -5.09871,3.19229 -0.63161,2.47569 0.62584,5.06859 2.81349,5.78523 4.04217,1.32251 8.0958,2.5864 12.16663,3.78504 h -0.006 c 2.19335,0.62542 4.4211,-0.87299 4.9895,-3.35509 0.56843,-2.48217 -0.73494,-5.02287 -2.91683,-5.68747 z"
       id="path69"
       style="stroke-width:1.56572" />
    <path
       d="m 366.74169,496.51268 c 2.20481,0.64497 4.44976,-0.85344 5.01831,-3.34857 0.56855,-2.49515 -0.75217,-5.04889 -2.95122,-5.69399 l -30.91304,-9.09462 c -31.55096,-9.27707 -62.09064,-22.50845 -91.06343,-39.43981 -2.01535,-1.16616 -4.48431,-0.2606 -5.52351,2.02602 -1.03925,2.28019 -0.25265,5.08809 1.75694,6.27371 29.51224,17.25159 60.62665,30.73065 92.76262,40.18366 z"
       id="path71"
       style="stroke-width:1.56572" />
  </g>
</svg>
