<svg xmlns:xlink="http://www.w3.org/1999/xlink" width="108" height="30" viewBox="0 0 108 30" fill="none" xmlns="http://www.w3.org/2000/svg" style="width: 108px; height: 30px; color: rgb(16, 16, 16);"><path fill-rule="evenodd" clip-rule="evenodd" d="M45.0288 14.2747C44.673 14.65 44.2255 14.8374 43.686 14.8374H41.4234V10.9267H43.686C44.2255 10.9267 44.673 11.1112 45.0288 11.4801C45.3844 11.849 45.562 12.3165 45.562 12.8819C45.562 13.4353 45.3844 13.8998 45.0288 14.2747ZM46.8129 9.80156C45.9669 8.96545 44.9245 8.54712 43.686 8.54712H38.8853V21.2076H41.4234V17.2168H43.686C44.9245 17.2168 45.9669 16.799 46.8129 15.9626C47.659 15.1265 48.0821 14.0996 48.0821 12.8819C48.0821 11.6646 47.659 10.6379 46.8129 9.80156ZM53.1313 12.1549C52.6222 12.45 52.2573 12.893 52.0367 13.4832V11.7124H49.6639V21.2078H52.0367V16.7991C52.0367 15.9136 52.3219 15.2803 52.8921 14.899C53.4622 14.5183 54.1088 14.3704 54.8325 14.4563V11.7124C54.207 11.7124 53.6396 11.8598 53.1313 12.1549ZM58.6215 18.2405C59.0805 18.7079 59.6564 18.9418 60.3487 18.9418C61.0406 18.9418 61.6195 18.7079 62.0849 18.2405C62.5502 17.7727 62.7828 17.1793 62.7828 16.4601C62.7828 15.7409 62.5502 15.1472 62.0849 14.6794C61.6195 14.212 61.0406 13.9784 60.3487 13.9784C59.6564 13.9784 59.0805 14.212 58.6215 14.6794C58.162 15.1472 57.9323 15.7409 57.9323 16.4601C57.9323 17.1793 58.162 17.7727 58.6215 18.2405ZM63.7137 19.832C62.7946 20.7491 61.6732 21.2078 60.3487 21.2078C59.0242 21.2078 57.9055 20.7491 56.9926 19.832C56.0798 18.9146 55.6235 17.7908 55.6235 16.4601C55.6235 15.1291 56.0798 14.005 56.9926 13.0879C57.9055 12.1711 59.0242 11.7124 60.3487 11.7124C61.6732 11.7124 62.7946 12.1711 63.7137 13.0879C64.6323 14.005 65.0916 15.1291 65.0916 16.4601C65.0916 17.7908 64.6323 18.9146 63.7137 19.832ZM69.8764 13.9998H71.9547V11.7124H69.8764V9.4023L67.5036 10.1297V11.7124H65.9034V13.9998H67.5036V18.0332C67.5036 19.3 67.8375 20.1795 68.5059 20.6711C69.1741 21.1627 70.3239 21.3167 71.9547 21.132V18.9739C71.5009 18.9989 71.1207 19.0019 70.8144 18.9833C70.5079 18.9649 70.2747 18.8817 70.1154 18.7343C69.9561 18.5866 69.8764 18.353 69.8764 18.0332V13.9998ZM75.7439 18.2405C76.2029 18.7079 76.7788 18.9418 77.471 18.9418C78.163 18.9418 78.7419 18.7079 79.2072 18.2405C79.6725 17.7727 79.9052 17.1793 79.9052 16.4601C79.9052 15.7409 79.6725 15.1472 79.2072 14.6794C78.7419 14.212 78.163 13.9784 77.471 13.9784C76.7788 13.9784 76.2029 14.212 75.7439 14.6794C75.2843 15.1472 75.0546 15.7409 75.0546 16.4601C75.0546 17.1793 75.2843 17.7727 75.7439 18.2405ZM80.8361 19.832C79.9169 20.7491 78.7955 21.2077 77.471 21.2077C76.1465 21.2077 75.0278 20.7491 74.115 19.832C73.2021 18.9146 72.7458 17.7908 72.7458 16.4601C72.7458 15.1291 73.2021 14.005 74.115 13.0879C75.0278 12.1711 76.1465 11.7124 77.471 11.7124C78.7955 11.7124 79.9169 12.1711 80.8361 13.0879C81.7547 14.005 82.214 15.1291 82.214 16.4601C82.214 17.7908 81.7547 18.9146 80.8361 19.832ZM89.9393 14.2747C89.5835 14.65 89.1362 14.8374 88.5965 14.8374H86.3342V10.9267H88.5965C89.1362 10.9267 89.5835 11.1112 89.9393 11.4801C90.2951 11.849 90.4728 12.3165 90.4728 12.8819C90.4728 13.4353 90.2951 13.8998 89.9393 14.2747ZM91.7234 9.80156C90.8773 8.96545 89.835 8.54712 88.5965 8.54712H83.7957V21.2076H86.3342V17.2168H88.5965C89.835 17.2168 90.8773 16.799 91.7234 15.9626C92.5694 15.1265 92.9926 14.0996 92.9926 12.8819C92.9926 11.6646 92.5694 10.6379 91.7234 9.80156ZM94.5753 21.2076H96.9481V13.2951H94.5753V21.2076ZM95.7397 11.7123C95.3159 11.7123 94.9489 11.5564 94.6379 11.2443C94.3273 10.9328 94.1718 10.5647 94.1718 10.1395C94.1718 9.71509 94.3273 9.34343 94.6379 9.02474C94.9489 8.70633 95.3159 8.54712 95.7397 8.54712C96.1762 8.54712 96.5504 8.70633 96.8611 9.02474C97.1723 9.34343 97.3278 9.71509 97.3278 10.1395C97.3278 10.5647 97.1723 10.9328 96.8611 11.2443C96.5504 11.5564 96.1762 11.7123 95.7397 11.7123ZM105.638 15.6149H100.968C101.102 15.0393 101.376 14.5927 101.792 14.2751C102.207 13.9578 102.732 13.7986 103.367 13.7986C103.904 13.7986 104.383 13.9487 104.804 14.2482C105.226 14.548 105.503 15.0033 105.638 15.6149ZM107.542 19.2835C107.542 19.2835 107.604 19.1963 107.683 19.076C107.683 19.076 106.131 18.599 105.471 18.3975C105.015 18.8685 104.387 19.1037 103.586 19.1037C102.182 19.1037 101.321 18.5402 101.004 17.4131H107.909C107.969 17.0777 108 16.7598 108 16.4601C108 15.1175 107.564 13.9905 106.691 13.0791C105.818 12.1681 104.71 11.7124 103.367 11.7124C101.95 11.7124 100.79 12.1653 99.8869 13.0701C98.9833 13.9754 98.532 15.1055 98.532 16.4601C98.532 17.8268 98.9896 18.9599 99.9055 19.8589C100.821 20.7581 102.036 21.2078 103.55 21.2078C105.308 21.2078 106.639 20.5665 107.542 19.2835Z" fill="#252830"></path><g clip-path="url(#clip0_2876_3009)" fill="none"><rect x="0.0850403" y="0.0850403" width="29.8299" height="29.8299" rx="10.8001" fill="url(&quot;#paint0_linear_2876_3009&quot;)" stroke="#D8DBE3" stroke-width="0.170081px"></rect><g filter="url(#filter0_dd_2876_3009)" fill="none"><g filter="url(#filter1_ii_2876_3009)" fill="none"><path fill-rule="evenodd" clip-rule="evenodd" d="M15.029 22.1931V25.1916C14.5336 25.1916 14.0842 24.9945 13.7537 24.6751C13.7525 24.6751 13.7525 24.6751 13.7525 24.6741L13.5049 24.3783L5.39676 14.7276C5.39145 14.7251 5.38762 14.7198 5.38487 14.7144L5.35214 14.6765C5.34959 14.6737 5.3481 14.6711 5.34576 14.6684C5.30624 14.6147 5.27223 14.5568 5.24992 14.4937C5.21975 14.4188 5.20275 14.3374 5.2002 14.2533V14.2034C5.2002 14.1877 5.20147 14.1717 5.20423 14.1559C5.21847 13.9906 5.28923 13.8431 5.39676 13.7276C5.52915 13.5844 5.7204 13.4938 5.93121 13.4938H7.71775L15.0277 22.1943L15.029 22.1931Z" fill="url(&quot;#paint1_linear_2876_3009&quot;)"></path><path fill-rule="evenodd" clip-rule="evenodd" d="M15.029 22.1931V25.1916C14.5336 25.1916 14.0842 24.9945 13.7537 24.6751C13.7525 24.6751 13.7525 24.6751 13.7525 24.6741L13.5049 24.3783L5.39676 14.7276C5.39145 14.7251 5.38762 14.7198 5.38487 14.7144L5.35214 14.6765C5.34959 14.6737 5.3481 14.6711 5.34576 14.6684C5.30624 14.6147 5.27223 14.5568 5.24992 14.4937C5.21975 14.4188 5.20275 14.3374 5.2002 14.2533V14.2034C5.2002 14.1877 5.20147 14.1717 5.20423 14.1559C5.21847 13.9906 5.28923 13.8431 5.39676 13.7276C5.52915 13.5844 5.7204 13.4938 5.93121 13.4938H7.71775L15.0277 22.1943L15.029 22.1931Z" fill="url(&quot;#paint2_linear_2876_3009&quot;)"></path></g><g filter="url(#filter2_ii_2876_3009)" fill="none"><path fill-rule="evenodd" clip-rule="evenodd" d="M15.029 22.1931V25.1916C14.5336 25.1916 14.0842 24.9945 13.7537 24.6751C13.7525 24.6751 13.7525 24.6751 13.7525 24.6741L13.5049 24.3783L7.45551 17.1785L5.39676 14.7276C5.39145 14.7251 5.38762 14.7198 5.38487 14.7144L5.35214 14.6765C5.34959 14.6737 5.3481 14.6711 5.34576 14.6684C5.30624 14.6147 5.27223 14.5568 5.24992 14.4937C5.21975 14.4188 5.20275 14.3374 5.2002 14.2533V14.2034C5.2002 14.1877 5.20147 14.1717 5.20423 14.1559C5.21847 13.9906 5.28923 13.8431 5.39676 13.7276C5.52915 13.5844 5.7204 13.4938 5.93121 13.4938H7.71775L8.55778 14.4937L10.8131 17.1785L14.5111 21.5794L15.0277 22.1943L15.029 22.1931Z" fill="url(&quot;#paint3_linear_2876_3009&quot;)" fill-opacity="0.4"></path></g><g filter="url(#filter3_ii_2876_3009)" fill="none"><path fill-rule="evenodd" clip-rule="evenodd" d="M15.029 18.2099V22.2134L15.0277 22.2147L5.38316 10.7668C5.37339 10.7559 5.36361 10.7436 5.35384 10.7311C5.31092 10.6761 5.27521 10.6146 5.24928 10.5468C5.21996 10.472 5.20275 10.3908 5.2002 10.3049V10.2556C5.20508 10.0726 5.27883 9.9079 5.39676 9.78271C5.52831 9.63754 5.71977 9.54785 5.93121 9.54785H7.73241L15.029 18.2099Z" fill="url(&quot;#paint4_linear_2876_3009&quot;)"></path><path fill-rule="evenodd" clip-rule="evenodd" d="M15.029 18.2099V22.2134L15.0277 22.2147L5.38316 10.7668C5.37339 10.7559 5.36361 10.7436 5.35384 10.7311C5.31092 10.6761 5.27521 10.6146 5.24928 10.5468C5.21996 10.472 5.20275 10.3908 5.2002 10.3049V10.2556C5.20508 10.0726 5.27883 9.9079 5.39676 9.78271C5.52831 9.63754 5.71977 9.54785 5.93121 9.54785H7.73241L15.029 18.2099Z" fill="url(&quot;#paint5_linear_2876_3009&quot;)"></path></g><g filter="url(#filter4_ii_2876_3009)" fill="none"><path fill-rule="evenodd" clip-rule="evenodd" d="M15.029 18.2099V22.2134L15.0277 22.2147L14.5118 21.6014L10.8137 17.2122L8.55799 14.5345L7.71775 13.5367L5.38316 10.7668C5.37339 10.7559 5.36361 10.7436 5.35384 10.7311C5.31092 10.6761 5.27521 10.6146 5.24928 10.5468C5.21996 10.472 5.20275 10.3908 5.2002 10.3049V10.2556C5.20508 10.0726 5.27883 9.9079 5.39676 9.78271C5.52831 9.63754 5.71977 9.54785 5.93121 9.54785H7.73241L8.57393 10.5468L11.0927 13.5367L11.9329 14.5345L14.1887 17.2122L15.029 18.2099Z" fill="url(&quot;#paint6_linear_2876_3009&quot;)" fill-opacity="0.3"></path></g><g filter="url(#filter5_ii_2876_3009)" fill="none"><path fill-rule="evenodd" clip-rule="evenodd" d="M5.90046 5.53357C5.68987 5.53357 5.49691 5.6224 5.36601 5.76797C5.24807 5.89122 5.17475 6.0589 5.16943 6.24123V6.28968C5.17177 6.37617 5.18877 6.45735 5.21916 6.53194C5.22044 6.53853 5.2232 6.54384 5.22554 6.55042C5.24934 6.60675 5.27931 6.65902 5.31735 6.70769C5.33031 6.72617 5.34497 6.74318 5.3607 6.75869C5.36324 6.76273 5.36707 6.76655 5.37111 6.77059L14.9981 18.1971V25.1913C15.0442 25.1913 15.0889 25.1901 15.1332 25.1862C15.5749 25.155 15.9733 24.9661 16.2734 24.6764C16.2748 24.6764 16.2748 24.6764 16.2748 24.6749L16.5225 24.3802L24.6425 14.7412C24.6529 14.7308 24.6621 14.7189 24.6714 14.7072C24.7159 14.6521 24.7512 14.5903 24.7773 14.5223C24.8102 14.4411 24.8272 14.3521 24.8272 14.2575V6.26482C24.8272 6.07207 24.7524 5.89505 24.6294 5.7667C24.497 5.6224 24.3068 5.53357 24.0945 5.53357H5.90046Z" fill="url(&quot;#paint7_linear_2876_3009&quot;)"></path><path fill-rule="evenodd" clip-rule="evenodd" d="M5.90046 5.53357C5.68987 5.53357 5.49691 5.6224 5.36601 5.76797C5.24807 5.89122 5.17475 6.0589 5.16943 6.24123V6.28968C5.17177 6.37617 5.18877 6.45735 5.21916 6.53194C5.22044 6.53853 5.2232 6.54384 5.22554 6.55042C5.24934 6.60675 5.27931 6.65902 5.31735 6.70769C5.33031 6.72617 5.34497 6.74318 5.3607 6.75869C5.36324 6.76273 5.36707 6.76655 5.37111 6.77059L14.9981 18.1971V25.1913C15.0442 25.1913 15.0889 25.1901 15.1332 25.1862C15.5749 25.155 15.9733 24.9661 16.2734 24.6764C16.2748 24.6764 16.2748 24.6764 16.2748 24.6749L16.5225 24.3802L24.6425 14.7412C24.6529 14.7308 24.6621 14.7189 24.6714 14.7072C24.7159 14.6521 24.7512 14.5903 24.7773 14.5223C24.8102 14.4411 24.8272 14.3521 24.8272 14.2575V6.26482C24.8272 6.07207 24.7524 5.89505 24.6294 5.7667C24.497 5.6224 24.3068 5.53357 24.0945 5.53357H5.90046Z" fill="url(&quot;#paint8_linear_2876_3009&quot;)"></path><path fill-rule="evenodd" clip-rule="evenodd" d="M5.90046 5.53357C5.68987 5.53357 5.49691 5.6224 5.36601 5.76797C5.24807 5.89122 5.17475 6.0589 5.16943 6.24123V6.28968C5.17177 6.37617 5.18877 6.45735 5.21916 6.53194C5.22044 6.53853 5.2232 6.54384 5.22554 6.55042C5.24934 6.60675 5.27931 6.65902 5.31735 6.70769C5.33031 6.72617 5.34497 6.74318 5.3607 6.75869C5.36324 6.76273 5.36707 6.76655 5.37111 6.77059L14.9981 18.1971V25.1913C15.0442 25.1913 15.0889 25.1901 15.1332 25.1862C15.5749 25.155 15.9733 24.9661 16.2734 24.6764C16.2748 24.6764 16.2748 24.6764 16.2748 24.6749L16.5225 24.3802L24.6425 14.7412C24.6529 14.7308 24.6621 14.7189 24.6714 14.7072C24.7159 14.6521 24.7512 14.5903 24.7773 14.5223C24.8102 14.4411 24.8272 14.3521 24.8272 14.2575V6.26482C24.8272 6.07207 24.7524 5.89505 24.6294 5.7667C24.497 5.6224 24.3068 5.53357 24.0945 5.53357H5.90046Z" fill="url(&quot;#paint9_linear_2876_3009&quot;)"></path><path fill-rule="evenodd" clip-rule="evenodd" d="M5.90046 5.53357C5.68987 5.53357 5.49691 5.6224 5.36601 5.76797C5.24807 5.89122 5.17475 6.0589 5.16943 6.24123V6.28968C5.17177 6.37617 5.18877 6.45735 5.21916 6.53194C5.22044 6.53853 5.2232 6.54384 5.22554 6.55042C5.24934 6.60675 5.27931 6.65902 5.31735 6.70769C5.33031 6.72617 5.34497 6.74318 5.3607 6.75869C5.36324 6.76273 5.36707 6.76655 5.37111 6.77059L14.9981 18.1971V25.1913C15.0442 25.1913 15.0889 25.1901 15.1332 25.1862C15.5749 25.155 15.9733 24.9661 16.2734 24.6764C16.2748 24.6764 16.2748 24.6764 16.2748 24.6749L16.5225 24.3802L24.6425 14.7412C24.6529 14.7308 24.6621 14.7189 24.6714 14.7072C24.7159 14.6521 24.7512 14.5903 24.7773 14.5223C24.8102 14.4411 24.8272 14.3521 24.8272 14.2575V6.26482C24.8272 6.07207 24.7524 5.89505 24.6294 5.7667C24.497 5.6224 24.3068 5.53357 24.0945 5.53357H5.90046Z" fill="url(&quot;#paint10_linear_2876_3009&quot;)"></path><path fill-rule="evenodd" clip-rule="evenodd" d="M5.90046 5.53357C5.68987 5.53357 5.49691 5.6224 5.36601 5.76797C5.24807 5.89122 5.17475 6.0589 5.16943 6.24123V6.28968C5.17177 6.37617 5.18877 6.45735 5.21916 6.53194C5.22044 6.53853 5.2232 6.54384 5.22554 6.55042C5.24934 6.60675 5.27931 6.65902 5.31735 6.70769C5.33031 6.72617 5.34497 6.74318 5.3607 6.75869C5.36324 6.76273 5.36707 6.76655 5.37111 6.77059L14.9981 18.1971V25.1913C15.0442 25.1913 15.0889 25.1901 15.1332 25.1862C15.5749 25.155 15.9733 24.9661 16.2734 24.6764C16.2748 24.6764 16.2748 24.6764 16.2748 24.6749L16.5225 24.3802L24.6425 14.7412C24.6529 14.7308 24.6621 14.7189 24.6714 14.7072C24.7159 14.6521 24.7512 14.5903 24.7773 14.5223C24.8102 14.4411 24.8272 14.3521 24.8272 14.2575V6.26482C24.8272 6.07207 24.7524 5.89505 24.6294 5.7667C24.497 5.6224 24.3068 5.53357 24.0945 5.53357H5.90046Z" fill="url(&quot;#paint11_linear_2876_3009&quot;)"></path><path fill-rule="evenodd" clip-rule="evenodd" d="M5.90046 5.53357C5.68987 5.53357 5.49691 5.6224 5.36601 5.76797C5.24807 5.89122 5.17475 6.0589 5.16943 6.24123V6.28968C5.17177 6.37617 5.18877 6.45735 5.21916 6.53194C5.22044 6.53853 5.2232 6.54384 5.22554 6.55042C5.24934 6.60675 5.27931 6.65902 5.31735 6.70769C5.33031 6.72617 5.34497 6.74318 5.3607 6.75869C5.36324 6.76273 5.36707 6.76655 5.37111 6.77059L14.9981 18.1971V25.1913C15.0442 25.1913 15.0889 25.1901 15.1332 25.1862C15.5749 25.155 15.9733 24.9661 16.2734 24.6764C16.2748 24.6764 16.2748 24.6764 16.2748 24.6749L16.5225 24.3802L24.6425 14.7412C24.6529 14.7308 24.6621 14.7189 24.6714 14.7072C24.7159 14.6521 24.7512 14.5903 24.7773 14.5223C24.8102 14.4411 24.8272 14.3521 24.8272 14.2575V6.26482C24.8272 6.07207 24.7524 5.89505 24.6294 5.7667C24.497 5.6224 24.3068 5.53357 24.0945 5.53357H5.90046Z" fill="url(&quot;#paint12_linear_2876_3009&quot;)"></path></g></g></g><defs><filter id="filter0_dd_2876_3009" x="2.61339" y="3.58611" width="26.4738" height="26.4741" filterUnits="userSpaceOnUse" color-interpolation-filters="sRGB"><feFlood flood-opacity="0" result="BackgroundImageFix"></feFlood><feColorMatrix in="SourceAlpha" type="matrix" values="0 0 0 0 0 0 0 0 0 0 0 0 0 0 0 0 0 0 127 0" result="hardAlpha"></feColorMatrix><feOffset dx="0.852015" dy="1.4606"></feOffset><feGaussianBlur stdDeviation="1.70403"></feGaussianBlur><feColorMatrix type="matrix" values="0 0 0 0 1 0 0 0 0 0.875 0 0 0 0 0.843 0 0 0 0.63 0"></feColorMatrix><feBlend mode="normal" in2="BackgroundImageFix" result="effect1_dropShadow_2876_3009"></feBlend><feColorMatrix in="SourceAlpha" type="matrix" values="0 0 0 0 0 0 0 0 0 0 0 0 0 0 0 0 0 0 127 0" result="hardAlpha"></feColorMatrix><feOffset dx="0.365149" dy="0.730298"></feOffset><feGaussianBlur stdDeviation="1.21716"></feGaussianBlur><feColorMatrix type="matrix" values="0 0 0 0 0.771137 0 0 0 0 0.469437 0 0 0 0 0.40806 0 0 0 0.3 0"></feColorMatrix><feBlend mode="normal" in2="effect1_dropShadow_2876_3009" result="effect2_dropShadow_2876_3009"></feBlend><feBlend mode="normal" in="SourceGraphic" in2="effect2_dropShadow_2876_3009" result="shape"></feBlend></filter><filter id="filter1_ii_2876_3009" x="2.9595" y="13.4938" width="14.8688" height="15.8361" filterUnits="userSpaceOnUse" color-interpolation-filters="sRGB"><feFlood flood-opacity="0" result="BackgroundImageFix"></feFlood><feBlend mode="normal" in="SourceGraphic" in2="BackgroundImageFix" result="shape"></feBlend><feColorMatrix in="SourceAlpha" type="matrix" values="0 0 0 0 0 0 0 0 0 0 0 0 0 0 0 0 0 0 127 0" result="hardAlpha"></feColorMatrix><feOffset dx="2.79947" dy="6.93784"></feOffset><feGaussianBlur stdDeviation="2.06918"></feGaussianBlur><feComposite in2="hardAlpha" operator="arithmetic" k2="-1" k3="1"></feComposite><feColorMatrix type="matrix" values="0 0 0 0 1 0 0 0 0 0.651 0 0 0 0 0.58 0 0 0 1 0"></feColorMatrix><feBlend mode="normal" in2="shape" result="effect1_innerShadow_2876_3009"></feBlend><feColorMatrix in="SourceAlpha" type="matrix" values="0 0 0 0 0 0 0 0 0 0 0 0 0 0 0 0 0 0 127 0" result="hardAlpha"></feColorMatrix><feOffset dx="-2.24069" dy="14.7885"></feOffset><feGaussianBlur stdDeviation="2.01663"></feGaussianBlur><feComposite in2="hardAlpha" operator="arithmetic" k2="-1" k3="1"></feComposite><feColorMatrix type="matrix" values="0 0 0 0 1 0 0 0 0 0.875 0 0 0 0 0.843 0 0 0 0.48 0"></feColorMatrix><feBlend mode="normal" in2="effect1_innerShadow_2876_3009" result="effect2_innerShadow_2876_3009"></feBlend></filter><filter id="filter2_ii_2876_3009" x="5.2002" y="12.155" width="11.4109" height="13.0366" filterUnits="userSpaceOnUse" color-interpolation-filters="sRGB"><feFlood flood-opacity="0" result="BackgroundImageFix"></feFlood><feBlend mode="normal" in="SourceGraphic" in2="BackgroundImageFix" result="shape"></feBlend><feColorMatrix in="SourceAlpha" type="matrix" values="0 0 0 0 0 0 0 0 0 0 0 0 0 0 0 0 0 0 127 0" result="hardAlpha"></feColorMatrix><feOffset dx="0.121716" dy="-1.4606"></feOffset><feGaussianBlur stdDeviation="0.547724"></feGaussianBlur><feComposite in2="hardAlpha" operator="arithmetic" k2="-1" k3="1"></feComposite><feColorMatrix type="matrix" values="0 0 0 0 1 0 0 0 0 0.604589 0 0 0 0 0.591667 0 0 0 0.2 0"></feColorMatrix><feBlend mode="multiply" in2="shape" result="effect1_innerShadow_2876_3009"></feBlend><feColorMatrix in="SourceAlpha" type="matrix" values="0 0 0 0 0 0 0 0 0 0 0 0 0 0 0 0 0 0 127 0" result="hardAlpha"></feColorMatrix><feOffset dx="1.58231" dy="-1.33888"></feOffset><feGaussianBlur stdDeviation="0.791157"></feGaussianBlur><feComposite in2="hardAlpha" operator="arithmetic" k2="-1" k3="1"></feComposite><feColorMatrix type="matrix" values="0 0 0 0 1 0 0 0 0 1 0 0 0 0 1 0 0 0 0.3 0"></feColorMatrix><feBlend mode="normal" in2="effect1_innerShadow_2876_3009" result="effect2_innerShadow_2876_3009"></feBlend></filter><filter id="filter3_ii_2876_3009" x="2.9595" y="9.54785" width="14.8688" height="16.8052" filterUnits="userSpaceOnUse" color-interpolation-filters="sRGB"><feFlood flood-opacity="0" result="BackgroundImageFix"></feFlood><feBlend mode="normal" in="SourceGraphic" in2="BackgroundImageFix" result="shape"></feBlend><feColorMatrix in="SourceAlpha" type="matrix" values="0 0 0 0 0 0 0 0 0 0 0 0 0 0 0 0 0 0 127 0" result="hardAlpha"></feColorMatrix><feOffset dx="2.79947" dy="6.93784"></feOffset><feGaussianBlur stdDeviation="2.06918"></feGaussianBlur><feComposite in2="hardAlpha" operator="arithmetic" k2="-1" k3="1"></feComposite><feColorMatrix type="matrix" values="0 0 0 0 1 0 0 0 0 0.651 0 0 0 0 0.58 0 0 0 1 0"></feColorMatrix><feBlend mode="normal" in2="shape" result="effect1_innerShadow_2876_3009"></feBlend><feColorMatrix in="SourceAlpha" type="matrix" values="0 0 0 0 0 0 0 0 0 0 0 0 0 0 0 0 0 0 127 0" result="hardAlpha"></feColorMatrix><feOffset dx="-2.24069" dy="14.7885"></feOffset><feGaussianBlur stdDeviation="2.01663"></feGaussianBlur><feComposite in2="hardAlpha" operator="arithmetic" k2="-1" k3="1"></feComposite><feColorMatrix type="matrix" values="0 0 0 0 1 0 0 0 0 0.875 0 0 0 0 0.843 0 0 0 0.48 0"></feColorMatrix><feBlend mode="normal" in2="effect1_innerShadow_2876_3009" result="effect2_innerShadow_2876_3009"></feBlend></filter><filter id="filter4_ii_2876_3009" x="5.2002" y="9.30442" width="10.6806" height="13.2755" filterUnits="userSpaceOnUse" color-interpolation-filters="sRGB"><feFlood flood-opacity="0" result="BackgroundImageFix"></feFlood><feBlend mode="normal" in="SourceGraphic" in2="BackgroundImageFix" result="shape"></feBlend><feColorMatrix in="SourceAlpha" type="matrix" values="0 0 0 0 0 0 0 0 0 0 0 0 0 0 0 0 0 0 127 0" result="hardAlpha"></feColorMatrix><feOffset dx="0.365149" dy="-0.243433"></feOffset><feGaussianBlur stdDeviation="0.912873"></feGaussianBlur><feComposite in2="hardAlpha" operator="arithmetic" k2="-1" k3="1"></feComposite><feColorMatrix type="matrix" values="0 0 0 0 0.996078 0 0 0 0 0.458823 0 0 0 0 0.411765 0 0 0 0.5 0"></feColorMatrix><feBlend mode="normal" in2="shape" result="effect1_innerShadow_2876_3009"></feBlend><feColorMatrix in="SourceAlpha" type="matrix" values="0 0 0 0 0 0 0 0 0 0 0 0 0 0 0 0 0 0 127 0" result="hardAlpha"></feColorMatrix><feOffset dx="1.94746" dy="0.365149"></feOffset><feGaussianBlur stdDeviation="0.426008"></feGaussianBlur><feComposite in2="hardAlpha" operator="arithmetic" k2="-1" k3="1"></feComposite><feColorMatrix type="matrix" values="0 0 0 0 1 0 0 0 0 1 0 0 0 0 1 0 0 0 0.08 0"></feColorMatrix><feBlend mode="normal" in2="effect1_innerShadow_2876_3009" result="effect2_innerShadow_2876_3009"></feBlend></filter><filter id="filter5_ii_2876_3009" x="2.73558" y="3.70861" width="22.0916" height="23.0645" filterUnits="userSpaceOnUse" color-interpolation-filters="sRGB"><feFlood flood-opacity="0" result="BackgroundImageFix"></feFlood><feBlend mode="normal" in="SourceGraphic" in2="BackgroundImageFix" result="shape"></feBlend><feColorMatrix in="SourceAlpha" type="matrix" values="0 0 0 0 0 0 0 0 0 0 0 0 0 0 0 0 0 0 127 0" result="hardAlpha"></feColorMatrix><feOffset dx="-2.43385" dy="-1.82496"></feOffset><feGaussianBlur stdDeviation="1.76459"></feGaussianBlur><feComposite in2="hardAlpha" operator="arithmetic" k2="-1" k3="1"></feComposite><feColorMatrix type="matrix" values="0 0 0 0 0 0 0 0 0 0 0 0 0 0 0 0 0 0 0.1 0"></feColorMatrix><feBlend mode="hard-light" in2="shape" result="effect1_innerShadow_2876_3009"></feBlend><feColorMatrix in="SourceAlpha" type="matrix" values="0 0 0 0 0 0 0 0 0 0 0 0 0 0 0 0 0 0 127 0" result="hardAlpha"></feColorMatrix><feOffset dx="-0.243215" dy="1.58175"></feOffset><feGaussianBlur stdDeviation="1.52137"></feGaussianBlur><feComposite in2="hardAlpha" operator="arithmetic" k2="-1" k3="1"></feComposite><feColorMatrix type="matrix" values="0 0 0 0 1 0 0 0 0 0.87451 0 0 0 0 0.843137 0 0 0 0.7 0"></feColorMatrix><feBlend mode="soft-light" in2="effect1_innerShadow_2876_3009" result="effect2_innerShadow_2876_3009"></feBlend></filter><linearGradient id="paint0_linear_2876_3009" x1="15" y1="0" x2="15" y2="30" gradientUnits="userSpaceOnUse"><stop stop-color="white"></stop><stop offset="1" stop-color="#F6F8FC"></stop></linearGradient><linearGradient id="paint1_linear_2876_3009" x1="11.1029" y1="16.8798" x2="9.39317" y2="18.2214" gradientUnits="userSpaceOnUse"><stop stop-color="#FFA794" stop-opacity="0.3"></stop><stop offset="1" stop-color="#FF9794"></stop></linearGradient><linearGradient id="paint2_linear_2876_3009" x1="11.1029" y1="16.8798" x2="9.39317" y2="18.2214" gradientUnits="userSpaceOnUse"><stop stop-color="#FFA794" stop-opacity="0.3"></stop><stop offset="1" stop-color="#FF9794"></stop></linearGradient><linearGradient id="paint3_linear_2876_3009" x1="10.9573" y1="21.2236" x2="12.791" y2="19.585" gradientUnits="userSpaceOnUse"><stop stop-color="#FFDFD7"></stop><stop offset="1" stop-color="#FFDFD7"></stop></linearGradient><linearGradient id="paint4_linear_2876_3009" x1="11.1029" y1="13.2143" x2="9.20702" y2="15.1078" gradientUnits="userSpaceOnUse"><stop stop-color="#FFA794" stop-opacity="0.3"></stop><stop offset="1" stop-color="#FF9794"></stop></linearGradient><linearGradient id="paint5_linear_2876_3009" x1="11.1029" y1="13.2143" x2="9.20702" y2="15.1078" gradientUnits="userSpaceOnUse"><stop stop-color="#FFA794" stop-opacity="0.3"></stop><stop offset="1" stop-color="#FF9794"></stop></linearGradient><linearGradient id="paint6_linear_2876_3009" x1="11.5033" y1="17.8375" x2="13.4327" y2="15.8717" gradientUnits="userSpaceOnUse"><stop stop-color="#FFA694"></stop><stop offset="1" stop-color="#FFB7A9"></stop></linearGradient><linearGradient id="paint7_linear_2876_3009" x1="21.4053" y1="18.6752" x2="8.11839" y2="9.53753" gradientUnits="userSpaceOnUse"><stop stop-color="#FF6661"></stop><stop offset="1" stop-color="#FF7D73"></stop></linearGradient><linearGradient id="paint8_linear_2876_3009" x1="21.4053" y1="18.6752" x2="8.11839" y2="9.53753" gradientUnits="userSpaceOnUse"><stop stop-color="#FF6661"></stop><stop offset="1" stop-color="#FF7D73"></stop></linearGradient><linearGradient id="paint9_linear_2876_3009" x1="21.4053" y1="18.6752" x2="8.11839" y2="9.53753" gradientUnits="userSpaceOnUse"><stop stop-color="#FF6661"></stop><stop offset="1" stop-color="#FF7D73"></stop></linearGradient><linearGradient id="paint10_linear_2876_3009" x1="21.4053" y1="18.6752" x2="8.11839" y2="9.53753" gradientUnits="userSpaceOnUse"><stop stop-color="#FF6661"></stop><stop offset="1" stop-color="#FF7D73"></stop></linearGradient><linearGradient id="paint11_linear_2876_3009" x1="21.4053" y1="18.6752" x2="8.11839" y2="9.53753" gradientUnits="userSpaceOnUse"><stop stop-color="#FF6661"></stop><stop offset="1" stop-color="#FF7D73"></stop></linearGradient><linearGradient id="paint12_linear_2876_3009" x1="21.4053" y1="18.6752" x2="8.11839" y2="9.53753" gradientUnits="userSpaceOnUse"><stop stop-color="#FF6661"></stop><stop offset="1" stop-color="#FF7D73"></stop></linearGradient><clipPath id="clip0_2876_3009"><rect width="30" height="30" fill="white"></rect></clipPath><linearGradient id="paint0_linear_2876_3009" x1="15" y1="0" x2="15" y2="30" gradientUnits="userSpaceOnUse"><stop stop-color="white"></stop><stop offset="1" stop-color="#F6F8FC"></stop></linearGradient><linearGradient id="paint1_linear_2876_3009" x1="11.1029" y1="16.8798" x2="9.39317" y2="18.2214" gradientUnits="userSpaceOnUse"><stop stop-color="#FFA794" stop-opacity="0.3"></stop><stop offset="1" stop-color="#FF9794"></stop></linearGradient><linearGradient id="paint2_linear_2876_3009" x1="11.1029" y1="16.8798" x2="9.39317" y2="18.2214" gradientUnits="userSpaceOnUse"><stop stop-color="#FFA794" stop-opacity="0.3"></stop><stop offset="1" stop-color="#FF9794"></stop></linearGradient><linearGradient id="paint3_linear_2876_3009" x1="10.9573" y1="21.2236" x2="12.791" y2="19.585" gradientUnits="userSpaceOnUse"><stop stop-color="#FFDFD7"></stop><stop offset="1" stop-color="#FFDFD7"></stop></linearGradient><linearGradient id="paint4_linear_2876_3009" x1="11.1029" y1="13.2143" x2="9.20702" y2="15.1078" gradientUnits="userSpaceOnUse"><stop stop-color="#FFA794" stop-opacity="0.3"></stop><stop offset="1" stop-color="#FF9794"></stop></linearGradient><linearGradient id="paint5_linear_2876_3009" x1="11.1029" y1="13.2143" x2="9.20702" y2="15.1078" gradientUnits="userSpaceOnUse"><stop stop-color="#FFA794" stop-opacity="0.3"></stop><stop offset="1" stop-color="#FF9794"></stop></linearGradient><linearGradient id="paint6_linear_2876_3009" x1="11.5033" y1="17.8375" x2="13.4327" y2="15.8717" gradientUnits="userSpaceOnUse"><stop stop-color="#FFA694"></stop><stop offset="1" stop-color="#FFB7A9"></stop></linearGradient><linearGradient id="paint7_linear_2876_3009" x1="21.4053" y1="18.6752" x2="8.11839" y2="9.53753" gradientUnits="userSpaceOnUse"><stop stop-color="#FF6661"></stop><stop offset="1" stop-color="#FF7D73"></stop></linearGradient><linearGradient id="paint8_linear_2876_3009" x1="21.4053" y1="18.6752" x2="8.11839" y2="9.53753" gradientUnits="userSpaceOnUse"><stop stop-color="#FF6661"></stop><stop offset="1" stop-color="#FF7D73"></stop></linearGradient><linearGradient id="paint9_linear_2876_3009" x1="21.4053" y1="18.6752" x2="8.11839" y2="9.53753" gradientUnits="userSpaceOnUse"><stop stop-color="#FF6661"></stop><stop offset="1" stop-color="#FF7D73"></stop></linearGradient><linearGradient id="paint10_linear_2876_3009" x1="21.4053" y1="18.6752" x2="8.11839" y2="9.53753" gradientUnits="userSpaceOnUse"><stop stop-color="#FF6661"></stop><stop offset="1" stop-color="#FF7D73"></stop></linearGradient><linearGradient id="paint11_linear_2876_3009" x1="21.4053" y1="18.6752" x2="8.11839" y2="9.53753" gradientUnits="userSpaceOnUse"><stop stop-color="#FF6661"></stop><stop offset="1" stop-color="#FF7D73"></stop></linearGradient><linearGradient id="paint12_linear_2876_3009" x1="21.4053" y1="18.6752" x2="8.11839" y2="9.53753" gradientUnits="userSpaceOnUse"><stop stop-color="#FF6661"></stop><stop offset="1" stop-color="#FF7D73"></stop></linearGradient></defs></svg>